G75*
%MOIN*%
%OFA0B0*%
%FSLAX24Y24*%
%IPPOS*%
%LPD*%
%AMOC8*
5,1,8,0,0,1.08239X$1,22.5*
%
%ADD10C,0.0680*%
%ADD11C,0.0600*%
%ADD12R,0.0595X0.0595*%
%ADD13C,0.0595*%
%ADD14C,0.0749*%
D10*
X002400Y004592D02*
X003000Y004592D01*
X003000Y005592D02*
X002400Y005592D01*
X002400Y006592D02*
X003000Y006592D01*
X002706Y008428D02*
X002706Y009028D01*
X003706Y009028D02*
X003706Y008428D01*
X004706Y008428D02*
X004706Y009028D01*
X005706Y009028D02*
X005706Y008428D01*
X006706Y008428D02*
X006706Y009028D01*
X007706Y009028D02*
X007706Y008428D01*
X008706Y008428D02*
X008706Y009028D01*
X009706Y009028D02*
X009706Y008428D01*
X010706Y008428D02*
X010706Y009028D01*
X011706Y009028D02*
X011706Y008428D01*
X012706Y008428D02*
X012706Y009028D01*
X013706Y009028D02*
X013706Y008428D01*
X014706Y008428D02*
X014706Y009028D01*
X015706Y009028D02*
X015706Y008428D01*
X016706Y008428D02*
X016706Y009028D01*
X017706Y009028D02*
X017706Y008428D01*
X018706Y008428D02*
X018706Y009028D01*
X018713Y021841D02*
X018713Y022441D01*
X017713Y022441D02*
X017713Y021841D01*
X016713Y021841D02*
X016713Y022441D01*
X015713Y022441D02*
X015713Y021841D01*
X014713Y021841D02*
X014713Y022441D01*
X013713Y022441D02*
X013713Y021841D01*
X012713Y021841D02*
X012713Y022441D01*
X011713Y022441D02*
X011713Y021841D01*
X010713Y021841D02*
X010713Y022441D01*
X009713Y022441D02*
X009713Y021841D01*
X008713Y021841D02*
X008713Y022441D01*
X007713Y022441D02*
X007713Y021841D01*
X006713Y021841D02*
X006713Y022441D01*
X005713Y022441D02*
X005713Y021841D01*
X004713Y021841D02*
X004713Y022441D01*
X003713Y022441D02*
X003713Y021841D01*
X002713Y021841D02*
X002713Y022441D01*
X001713Y022441D02*
X001713Y021841D01*
X001706Y009028D02*
X001706Y008428D01*
D11*
X007680Y005692D02*
X008200Y005692D01*
X008200Y004692D02*
X007680Y004692D01*
X011200Y004692D02*
X011720Y004692D01*
X012680Y004692D02*
X013200Y004692D01*
X013200Y005692D02*
X012680Y005692D01*
X011720Y005692D02*
X011200Y005692D01*
X016200Y005692D02*
X016720Y005692D01*
X016720Y004692D02*
X016200Y004692D01*
X018193Y004592D02*
X018713Y004592D01*
X018713Y005592D02*
X018193Y005592D01*
X021713Y005592D02*
X022233Y005592D01*
X022233Y004592D02*
X021713Y004592D01*
X023499Y004692D02*
X024019Y004692D01*
X024019Y005692D02*
X023499Y005692D01*
X027019Y005692D02*
X027539Y005692D01*
X027539Y004692D02*
X027019Y004692D01*
D12*
X001706Y010922D03*
X001706Y019741D03*
D13*
X002706Y019741D03*
X003706Y019741D03*
X004706Y019741D03*
X005706Y019741D03*
X006706Y019741D03*
X007706Y019741D03*
X008706Y019741D03*
X009706Y019741D03*
X010706Y019741D03*
X011706Y019741D03*
X012706Y019741D03*
X013706Y019741D03*
X014706Y019741D03*
X015706Y019741D03*
X016706Y019741D03*
X017706Y019741D03*
X018706Y019741D03*
X018706Y010922D03*
X017706Y010922D03*
X016706Y010922D03*
X015706Y010922D03*
X014706Y010922D03*
X013706Y010922D03*
X012706Y010922D03*
X011706Y010922D03*
X010706Y010922D03*
X009706Y010922D03*
X008706Y010922D03*
X007706Y010922D03*
X006706Y010922D03*
X005706Y010922D03*
X004706Y010922D03*
X003706Y010922D03*
X002706Y010922D03*
D14*
X005111Y003052D03*
X006489Y003052D03*
X008911Y002352D03*
X010289Y002352D03*
X014211Y002352D03*
X015589Y002352D03*
X019124Y002352D03*
X020502Y002352D03*
X024043Y002352D03*
X025420Y002352D03*
X024839Y010914D03*
X024839Y012292D03*
X024839Y013670D03*
M02*
