%
M48
M72
T01C0.0315
T02C0.0320
T03C0.0400
T04C0.0433
%
T01
X1706Y10922
X2706Y10922
X3706Y10922
X4706Y10922
X5706Y10922
X6706Y10922
X7706Y10922
X8706Y10922
X9706Y10922
X10706Y10922
X11706Y10922
X12706Y10922
X13706Y10922
X14706Y10922
X15706Y10922
X16706Y10922
X17706Y10922
X18706Y10922
X18706Y19741
X17706Y19741
X16706Y19741
X15706Y19741
X14706Y19741
X13706Y19741
X12706Y19741
X11706Y19741
X10706Y19741
X9706Y19741
X8706Y19741
X7706Y19741
X6706Y19741
X5706Y19741
X4706Y19741
X3706Y19741
X2706Y19741
X1706Y19741
T02
X8200Y5692
X8200Y4692
X11200Y4692
X11200Y5692
X13200Y5692
X13200Y4692
X16200Y4692
X16200Y5692
X18713Y5592
X18713Y4592
X21713Y4592
X21713Y5592
X24019Y5692
X24019Y4692
X27019Y4692
X27019Y5692
T03
X18706Y8728
X17706Y8728
X16706Y8728
X15706Y8728
X14706Y8728
X13706Y8728
X12706Y8728
X11706Y8728
X10706Y8728
X9706Y8728
X8706Y8728
X7706Y8728
X6706Y8728
X5706Y8728
X4706Y8728
X3706Y8728
X2706Y8728
X1706Y8728
X2700Y6592
X2700Y5592
X2700Y4592
X2713Y22141
X3713Y22141
X4713Y22141
X5713Y22141
X6713Y22141
X7713Y22141
X8713Y22141
X9713Y22141
X10713Y22141
X11713Y22141
X12713Y22141
X13713Y22141
X14713Y22141
X15713Y22141
X16713Y22141
X17713Y22141
X18713Y22141
X1713Y22141
T04
X5111Y3052
X6489Y3052
X8911Y2352
X10289Y2352
X14211Y2352
X15589Y2352
X19124Y2352
X20502Y2352
X24043Y2352
X25420Y2352
X24839Y10914
X24839Y12292
X24839Y13670
M30
