G75*
%MOIN*%
%OFA0B0*%
%FSLAX24Y24*%
%IPPOS*%
%LPD*%
%AMOC8*
5,1,8,0,0,1.08239X$1,22.5*
%
%ADD10C,0.0000*%
%ADD11C,0.0060*%
%ADD12C,0.0050*%
%ADD13R,0.0300X0.4200*%
%ADD14R,0.0200X0.0750*%
%ADD15R,0.0200X0.0300*%
%ADD16C,0.0040*%
D10*
X001675Y000292D02*
X027265Y000292D01*
X027265Y000291D02*
X027342Y000293D01*
X027419Y000299D01*
X027496Y000308D01*
X027572Y000321D01*
X027648Y000338D01*
X027722Y000359D01*
X027796Y000383D01*
X027868Y000411D01*
X027938Y000442D01*
X028007Y000477D01*
X028075Y000515D01*
X028140Y000556D01*
X028203Y000601D01*
X028264Y000649D01*
X028323Y000699D01*
X028379Y000752D01*
X028432Y000808D01*
X028482Y000867D01*
X028530Y000928D01*
X028575Y000991D01*
X028616Y001056D01*
X028654Y001124D01*
X028689Y001193D01*
X028720Y001263D01*
X028748Y001335D01*
X028772Y001409D01*
X028793Y001483D01*
X028810Y001559D01*
X028823Y001635D01*
X028832Y001712D01*
X028838Y001789D01*
X028840Y001866D01*
X028840Y022339D01*
X028838Y022416D01*
X028832Y022493D01*
X028823Y022570D01*
X028810Y022646D01*
X028793Y022722D01*
X028772Y022796D01*
X028748Y022870D01*
X028720Y022942D01*
X028689Y023012D01*
X028654Y023081D01*
X028616Y023149D01*
X028575Y023214D01*
X028530Y023277D01*
X028482Y023338D01*
X028432Y023397D01*
X028379Y023453D01*
X028323Y023506D01*
X028264Y023556D01*
X028203Y023604D01*
X028140Y023649D01*
X028075Y023690D01*
X028007Y023728D01*
X027938Y023763D01*
X027868Y023794D01*
X027796Y023822D01*
X027722Y023846D01*
X027648Y023867D01*
X027572Y023884D01*
X027496Y023897D01*
X027419Y023906D01*
X027342Y023912D01*
X027265Y023914D01*
X025297Y023914D01*
X001675Y023914D01*
X001598Y023912D01*
X001521Y023906D01*
X001444Y023897D01*
X001368Y023884D01*
X001292Y023867D01*
X001218Y023846D01*
X001144Y023822D01*
X001072Y023794D01*
X001002Y023763D01*
X000933Y023728D01*
X000865Y023690D01*
X000800Y023649D01*
X000737Y023604D01*
X000676Y023556D01*
X000617Y023506D01*
X000561Y023453D01*
X000508Y023397D01*
X000458Y023338D01*
X000410Y023277D01*
X000365Y023214D01*
X000324Y023149D01*
X000286Y023081D01*
X000251Y023012D01*
X000220Y022942D01*
X000192Y022870D01*
X000168Y022796D01*
X000147Y022722D01*
X000130Y022646D01*
X000117Y022570D01*
X000108Y022493D01*
X000102Y022416D01*
X000100Y022339D01*
X000100Y001866D01*
X000102Y001789D01*
X000108Y001712D01*
X000117Y001635D01*
X000130Y001559D01*
X000147Y001483D01*
X000168Y001409D01*
X000192Y001335D01*
X000220Y001263D01*
X000251Y001193D01*
X000286Y001124D01*
X000324Y001056D01*
X000365Y000991D01*
X000410Y000928D01*
X000458Y000867D01*
X000508Y000808D01*
X000561Y000752D01*
X000617Y000699D01*
X000676Y000649D01*
X000737Y000601D01*
X000800Y000556D01*
X000865Y000515D01*
X000933Y000477D01*
X001002Y000442D01*
X001072Y000411D01*
X001144Y000383D01*
X001218Y000359D01*
X001292Y000338D01*
X001368Y000321D01*
X001444Y000308D01*
X001521Y000299D01*
X001598Y000293D01*
X001675Y000291D01*
D11*
X008550Y004192D02*
X008550Y006192D01*
X009300Y006192D01*
X009302Y006153D01*
X009308Y006114D01*
X009317Y006076D01*
X009330Y006039D01*
X009347Y006003D01*
X009367Y005970D01*
X009391Y005938D01*
X009417Y005909D01*
X009446Y005883D01*
X009478Y005859D01*
X009511Y005839D01*
X009547Y005822D01*
X009584Y005809D01*
X009622Y005800D01*
X009661Y005794D01*
X009700Y005792D01*
X009739Y005794D01*
X009778Y005800D01*
X009816Y005809D01*
X009853Y005822D01*
X009889Y005839D01*
X009922Y005859D01*
X009954Y005883D01*
X009983Y005909D01*
X010009Y005938D01*
X010033Y005970D01*
X010053Y006003D01*
X010070Y006039D01*
X010083Y006076D01*
X010092Y006114D01*
X010098Y006153D01*
X010100Y006192D01*
X010850Y006192D01*
X010850Y004192D01*
X008550Y004192D01*
X008456Y008228D02*
X008206Y008478D01*
X007956Y008228D01*
X007456Y008228D01*
X007206Y008478D01*
X006956Y008228D01*
X006456Y008228D01*
X006206Y008478D01*
X005956Y008228D01*
X005456Y008228D01*
X005206Y008478D01*
X004956Y008228D01*
X004456Y008228D01*
X004206Y008478D01*
X003956Y008228D01*
X003456Y008228D01*
X003206Y008478D01*
X002956Y008228D01*
X002456Y008228D01*
X002206Y008478D01*
X001956Y008228D01*
X001456Y008228D01*
X001206Y008478D01*
X001206Y008978D01*
X001456Y009228D01*
X001956Y009228D01*
X002206Y008978D01*
X002456Y009228D01*
X002956Y009228D01*
X003206Y008978D01*
X003206Y008478D01*
X003206Y008978D02*
X003456Y009228D01*
X003956Y009228D01*
X004206Y008978D01*
X004456Y009228D01*
X004956Y009228D01*
X005206Y008978D01*
X005456Y009228D01*
X005956Y009228D01*
X006206Y008978D01*
X006206Y008478D01*
X006206Y008978D02*
X006456Y009228D01*
X006956Y009228D01*
X007206Y008978D01*
X007456Y009228D01*
X007956Y009228D01*
X008206Y008978D01*
X008456Y009228D01*
X008956Y009228D01*
X009206Y008978D01*
X009206Y008478D01*
X008956Y008228D01*
X008456Y008228D01*
X008206Y008478D02*
X008206Y008978D01*
X009206Y008978D02*
X009456Y009228D01*
X009956Y009228D01*
X010206Y008978D01*
X010456Y009228D01*
X010956Y009228D01*
X011206Y008978D01*
X011456Y009228D01*
X011956Y009228D01*
X012206Y008978D01*
X012206Y008478D01*
X011956Y008228D01*
X011456Y008228D01*
X011206Y008478D01*
X010956Y008228D01*
X010456Y008228D01*
X010206Y008478D01*
X009956Y008228D01*
X009456Y008228D01*
X009206Y008478D01*
X010206Y008478D02*
X010206Y008978D01*
X011206Y008978D02*
X011206Y008478D01*
X012206Y008478D02*
X012456Y008228D01*
X012956Y008228D01*
X013206Y008478D01*
X013456Y008228D01*
X013956Y008228D01*
X014206Y008478D01*
X014456Y008228D01*
X014956Y008228D01*
X015206Y008478D01*
X015206Y008978D01*
X014956Y009228D01*
X014456Y009228D01*
X014206Y008978D01*
X014206Y008478D01*
X014206Y008978D02*
X013956Y009228D01*
X013456Y009228D01*
X013206Y008978D01*
X013206Y008478D01*
X013206Y008978D02*
X012956Y009228D01*
X012456Y009228D01*
X012206Y008978D01*
X015206Y008978D02*
X015456Y009228D01*
X015956Y009228D01*
X016206Y008978D01*
X016456Y009228D01*
X016956Y009228D01*
X017206Y008978D01*
X017456Y009228D01*
X017956Y009228D01*
X018206Y008978D01*
X018456Y009228D01*
X018956Y009228D01*
X019206Y008978D01*
X019206Y008478D01*
X018956Y008228D01*
X018456Y008228D01*
X018206Y008478D01*
X017956Y008228D01*
X017456Y008228D01*
X017206Y008478D01*
X016956Y008228D01*
X016456Y008228D01*
X016206Y008478D01*
X015956Y008228D01*
X015456Y008228D01*
X015206Y008478D01*
X016206Y008478D02*
X016206Y008978D01*
X017206Y008978D02*
X017206Y008478D01*
X018206Y008478D02*
X018206Y008978D01*
X019063Y006092D02*
X019813Y006092D01*
X019815Y006053D01*
X019821Y006014D01*
X019830Y005976D01*
X019843Y005939D01*
X019860Y005903D01*
X019880Y005870D01*
X019904Y005838D01*
X019930Y005809D01*
X019959Y005783D01*
X019991Y005759D01*
X020024Y005739D01*
X020060Y005722D01*
X020097Y005709D01*
X020135Y005700D01*
X020174Y005694D01*
X020213Y005692D01*
X020252Y005694D01*
X020291Y005700D01*
X020329Y005709D01*
X020366Y005722D01*
X020402Y005739D01*
X020435Y005759D01*
X020467Y005783D01*
X020496Y005809D01*
X020522Y005838D01*
X020546Y005870D01*
X020566Y005903D01*
X020583Y005939D01*
X020596Y005976D01*
X020605Y006014D01*
X020611Y006053D01*
X020613Y006092D01*
X021363Y006092D01*
X021363Y004092D01*
X019063Y004092D01*
X019063Y006092D01*
X015850Y006192D02*
X015850Y004192D01*
X013550Y004192D01*
X013550Y006192D01*
X014300Y006192D01*
X014302Y006153D01*
X014308Y006114D01*
X014317Y006076D01*
X014330Y006039D01*
X014347Y006003D01*
X014367Y005970D01*
X014391Y005938D01*
X014417Y005909D01*
X014446Y005883D01*
X014478Y005859D01*
X014511Y005839D01*
X014547Y005822D01*
X014584Y005809D01*
X014622Y005800D01*
X014661Y005794D01*
X014700Y005792D01*
X014739Y005794D01*
X014778Y005800D01*
X014816Y005809D01*
X014853Y005822D01*
X014889Y005839D01*
X014922Y005859D01*
X014954Y005883D01*
X014983Y005909D01*
X015009Y005938D01*
X015033Y005970D01*
X015053Y006003D01*
X015070Y006039D01*
X015083Y006076D01*
X015092Y006114D01*
X015098Y006153D01*
X015100Y006192D01*
X015850Y006192D01*
X024369Y006192D02*
X024369Y004192D01*
X026669Y004192D01*
X026669Y006192D01*
X025919Y006192D01*
X025917Y006153D01*
X025911Y006114D01*
X025902Y006076D01*
X025889Y006039D01*
X025872Y006003D01*
X025852Y005970D01*
X025828Y005938D01*
X025802Y005909D01*
X025773Y005883D01*
X025741Y005859D01*
X025708Y005839D01*
X025672Y005822D01*
X025635Y005809D01*
X025597Y005800D01*
X025558Y005794D01*
X025519Y005792D01*
X025480Y005794D01*
X025441Y005800D01*
X025403Y005809D01*
X025366Y005822D01*
X025330Y005839D01*
X025297Y005859D01*
X025265Y005883D01*
X025236Y005909D01*
X025210Y005938D01*
X025186Y005970D01*
X025166Y006003D01*
X025149Y006039D01*
X025136Y006076D01*
X025127Y006114D01*
X025121Y006153D01*
X025119Y006192D01*
X024369Y006192D01*
X024326Y020400D02*
X024219Y020507D01*
X024326Y020614D01*
X024646Y020614D01*
X024646Y020721D02*
X024539Y020827D01*
X024326Y020827D01*
X024646Y020721D02*
X024646Y020400D01*
X024326Y020400D01*
X024863Y020400D02*
X024863Y020827D01*
X024863Y020614D02*
X025077Y020827D01*
X025184Y020827D01*
X025401Y020827D02*
X025614Y020827D01*
X025507Y020934D02*
X025507Y020507D01*
X025614Y020400D01*
X026475Y020400D02*
X026688Y020400D01*
X026582Y020400D02*
X026582Y021041D01*
X026688Y021041D02*
X026475Y021041D01*
X026905Y020721D02*
X026905Y020507D01*
X027011Y020400D01*
X027225Y020400D01*
X027332Y020507D01*
X027332Y020721D01*
X027225Y020827D01*
X027011Y020827D01*
X026905Y020721D01*
X027549Y021041D02*
X027976Y021041D01*
X027763Y021041D02*
X027763Y020400D01*
X028838Y020827D02*
X029052Y020400D01*
X029265Y020827D01*
X029483Y020934D02*
X029589Y021041D01*
X029803Y021041D01*
X029910Y020934D01*
X029910Y020827D01*
X029483Y020400D01*
X029910Y020400D01*
X024001Y020400D02*
X024001Y020721D01*
X023895Y020827D01*
X023788Y020721D01*
X023788Y020400D01*
X023574Y020400D02*
X023574Y020827D01*
X023681Y020827D01*
X023788Y020721D01*
X023357Y020614D02*
X023357Y020507D01*
X023250Y020400D01*
X023037Y020400D01*
X022930Y020507D01*
X023037Y020721D02*
X023250Y020721D01*
X023357Y020614D01*
X023037Y020721D02*
X022930Y020827D01*
X022930Y020934D01*
X023037Y021041D01*
X023250Y021041D01*
X023357Y020934D01*
X022068Y020934D02*
X022068Y020721D01*
X021961Y020614D01*
X021641Y020614D01*
X021641Y020400D02*
X021641Y021041D01*
X021961Y021041D01*
X022068Y020934D01*
X021423Y021041D02*
X020996Y021041D01*
X021210Y021041D02*
X021210Y020400D01*
X019213Y021891D02*
X018963Y021641D01*
X018463Y021641D01*
X018213Y021891D01*
X017963Y021641D01*
X017463Y021641D01*
X017213Y021891D01*
X016963Y021641D01*
X016463Y021641D01*
X016213Y021891D01*
X015963Y021641D01*
X015463Y021641D01*
X015213Y021891D01*
X014963Y021641D01*
X014463Y021641D01*
X014213Y021891D01*
X013963Y021641D01*
X013463Y021641D01*
X013213Y021891D01*
X012963Y021641D01*
X012463Y021641D01*
X012213Y021891D01*
X011963Y021641D01*
X011463Y021641D01*
X011213Y021891D01*
X010963Y021641D01*
X010463Y021641D01*
X010213Y021891D01*
X009963Y021641D01*
X009463Y021641D01*
X009213Y021891D01*
X008963Y021641D01*
X008463Y021641D01*
X008213Y021891D01*
X007963Y021641D01*
X007463Y021641D01*
X007213Y021891D01*
X006963Y021641D01*
X006463Y021641D01*
X006213Y021891D01*
X005963Y021641D01*
X005463Y021641D01*
X005213Y021891D01*
X004963Y021641D01*
X004463Y021641D01*
X004213Y021891D01*
X003963Y021641D01*
X003463Y021641D01*
X003213Y021891D01*
X002963Y021641D01*
X002463Y021641D01*
X002213Y021891D01*
X001963Y021641D01*
X001463Y021641D01*
X001213Y021891D01*
X001213Y022391D01*
X001463Y022641D01*
X001963Y022641D01*
X002213Y022391D01*
X002463Y022641D01*
X002963Y022641D01*
X003213Y022391D01*
X003213Y021891D01*
X003213Y022391D02*
X003463Y022641D01*
X003963Y022641D01*
X004213Y022391D01*
X004463Y022641D01*
X004963Y022641D01*
X005213Y022391D01*
X005463Y022641D01*
X005963Y022641D01*
X006213Y022391D01*
X006213Y021891D01*
X006213Y022391D02*
X006463Y022641D01*
X006963Y022641D01*
X007213Y022391D01*
X007463Y022641D01*
X007963Y022641D01*
X008213Y022391D01*
X008463Y022641D01*
X008963Y022641D01*
X009213Y022391D01*
X009213Y021891D01*
X009213Y022391D02*
X009463Y022641D01*
X009963Y022641D01*
X010213Y022391D01*
X010463Y022641D01*
X010963Y022641D01*
X011213Y022391D01*
X011463Y022641D01*
X011963Y022641D01*
X012213Y022391D01*
X012213Y021891D01*
X012213Y022391D02*
X012463Y022641D01*
X012963Y022641D01*
X013213Y022391D01*
X013463Y022641D01*
X013963Y022641D01*
X014213Y022391D01*
X014463Y022641D01*
X014963Y022641D01*
X015213Y022391D01*
X015213Y021891D01*
X015213Y022391D02*
X015463Y022641D01*
X015963Y022641D01*
X016213Y022391D01*
X016463Y022641D01*
X016963Y022641D01*
X017213Y022391D01*
X017463Y022641D01*
X017963Y022641D01*
X018213Y022391D01*
X018463Y022641D01*
X018963Y022641D01*
X019213Y022391D01*
X019213Y021891D01*
X018213Y021891D02*
X018213Y022391D01*
X017213Y022391D02*
X017213Y021891D01*
X016213Y021891D02*
X016213Y022391D01*
X014213Y022391D02*
X014213Y021891D01*
X013213Y021891D02*
X013213Y022391D01*
X011213Y022391D02*
X011213Y021891D01*
X010213Y021891D02*
X010213Y022391D01*
X008213Y022391D02*
X008213Y021891D01*
X007213Y021891D02*
X007213Y022391D01*
X005213Y022391D02*
X005213Y021891D01*
X004213Y021891D02*
X004213Y022391D01*
X002213Y022391D02*
X002213Y021891D01*
X002206Y008978D02*
X002206Y008478D01*
X004206Y008478D02*
X004206Y008978D01*
X005206Y008978D02*
X005206Y008478D01*
X007206Y008478D02*
X007206Y008978D01*
D12*
X003400Y007442D02*
X003400Y003742D01*
X003300Y003642D01*
X002150Y003592D01*
X002259Y003267D02*
X002184Y003192D01*
X002184Y002892D01*
X002259Y002817D01*
X002409Y002817D01*
X002484Y002892D01*
X002645Y002817D02*
X002945Y002817D01*
X002795Y002817D02*
X002795Y003267D01*
X002645Y003117D01*
X002484Y003192D02*
X002409Y003267D01*
X002259Y003267D01*
X002027Y003267D02*
X001877Y003267D01*
X001952Y003267D02*
X001952Y002817D01*
X001877Y002817D02*
X002027Y002817D01*
X003060Y003822D02*
X003062Y003842D01*
X003068Y003860D01*
X003077Y003878D01*
X003089Y003893D01*
X003104Y003905D01*
X003122Y003914D01*
X003140Y003920D01*
X003160Y003922D01*
X003180Y003920D01*
X003198Y003914D01*
X003216Y003905D01*
X003231Y003893D01*
X003243Y003878D01*
X003252Y003860D01*
X003258Y003842D01*
X003260Y003822D01*
X003258Y003802D01*
X003252Y003784D01*
X003243Y003766D01*
X003231Y003751D01*
X003216Y003739D01*
X003198Y003730D01*
X003180Y003724D01*
X003160Y003722D01*
X003140Y003724D01*
X003122Y003730D01*
X003104Y003739D01*
X003089Y003751D01*
X003077Y003766D01*
X003068Y003784D01*
X003062Y003802D01*
X003060Y003822D01*
X003400Y007442D02*
X003300Y007542D01*
X002150Y007592D01*
X002122Y009473D02*
X002422Y009773D01*
X002422Y009848D01*
X002347Y009923D01*
X002197Y009923D01*
X002122Y009848D01*
X001962Y009848D02*
X001962Y009698D01*
X001887Y009623D01*
X001662Y009623D01*
X001662Y009473D02*
X001662Y009923D01*
X001887Y009923D01*
X001962Y009848D01*
X001502Y009923D02*
X001351Y009923D01*
X001426Y009923D02*
X001426Y009548D01*
X001351Y009473D01*
X001276Y009473D01*
X001201Y009548D01*
X002122Y009473D02*
X002422Y009473D01*
X009075Y005442D02*
X009075Y005142D01*
X009150Y005067D01*
X009300Y005067D01*
X009375Y005142D01*
X009375Y005442D01*
X009300Y005517D01*
X009150Y005517D01*
X009075Y005442D01*
X009535Y005517D02*
X009535Y005067D01*
X009535Y005217D02*
X009836Y005517D01*
X009996Y005292D02*
X010296Y005292D01*
X010221Y005517D02*
X009996Y005292D01*
X009836Y005067D02*
X009610Y005292D01*
X010221Y005067D02*
X010221Y005517D01*
X014075Y005342D02*
X014075Y005042D01*
X014150Y004967D01*
X014300Y004967D01*
X014375Y005042D01*
X014375Y005342D01*
X014300Y005417D01*
X014150Y005417D01*
X014075Y005342D01*
X014535Y005417D02*
X014535Y004967D01*
X014535Y005117D02*
X014836Y005417D01*
X014996Y005342D02*
X015071Y005417D01*
X015221Y005417D01*
X015296Y005342D01*
X015296Y005267D01*
X015221Y005192D01*
X015296Y005117D01*
X015296Y005042D01*
X015221Y004967D01*
X015071Y004967D01*
X014996Y005042D01*
X014836Y004967D02*
X014610Y005192D01*
X015146Y005192D02*
X015221Y005192D01*
X019488Y005242D02*
X019488Y004942D01*
X019563Y004867D01*
X019713Y004867D01*
X019788Y004942D01*
X019788Y005242D01*
X019713Y005317D01*
X019563Y005317D01*
X019488Y005242D01*
X019948Y005317D02*
X019948Y004867D01*
X019948Y005017D02*
X020248Y005317D01*
X020408Y005242D02*
X020483Y005317D01*
X020634Y005317D01*
X020709Y005242D01*
X020709Y005167D01*
X020408Y004867D01*
X020709Y004867D01*
X020248Y004867D02*
X020023Y005092D01*
X024894Y005142D02*
X024969Y005067D01*
X025119Y005067D01*
X025194Y005142D01*
X025194Y005442D01*
X025119Y005517D01*
X024969Y005517D01*
X024894Y005442D01*
X024894Y005142D01*
X025354Y005217D02*
X025655Y005517D01*
X025815Y005367D02*
X025965Y005517D01*
X025965Y005067D01*
X025815Y005067D02*
X026115Y005067D01*
X025655Y005067D02*
X025429Y005292D01*
X025354Y005517D02*
X025354Y005067D01*
X002429Y022886D02*
X002128Y022886D01*
X002279Y022886D02*
X002279Y023337D01*
X002128Y023187D01*
X001968Y023262D02*
X001893Y023337D01*
X001668Y023337D01*
X001668Y022886D01*
X001668Y023036D02*
X001893Y023036D01*
X001968Y023111D01*
X001968Y023262D01*
X001508Y023337D02*
X001358Y023337D01*
X001433Y023337D02*
X001433Y022961D01*
X001358Y022886D01*
X001283Y022886D01*
X001208Y022961D01*
D13*
X001850Y005592D03*
D14*
X002100Y007317D03*
X002100Y003867D03*
D15*
X002100Y005092D03*
X002100Y006092D03*
D16*
X004324Y004529D02*
X004324Y003845D01*
X007276Y003845D01*
X007276Y004529D01*
X004324Y004529D01*
X004324Y003845D02*
X004324Y003657D01*
X007276Y003657D01*
X007276Y003845D01*
X007276Y003657D02*
X007276Y002455D01*
X004324Y002455D01*
X004324Y002265D01*
X004324Y001946D01*
X004324Y001773D01*
X004324Y001655D01*
X007276Y001655D01*
X007276Y001773D01*
X007276Y001946D01*
X004324Y001946D01*
X004324Y001773D02*
X007276Y001773D01*
X007276Y001946D02*
X007276Y002265D01*
X007276Y002455D01*
X007276Y002265D02*
X004324Y002265D01*
X004434Y002217D02*
X004559Y001967D01*
X004684Y002217D01*
X004434Y002217D01*
X004453Y002178D02*
X004665Y002178D01*
X004645Y002140D02*
X004472Y002140D01*
X004492Y002101D02*
X004626Y002101D01*
X004607Y002063D02*
X004511Y002063D01*
X004530Y002024D02*
X004588Y002024D01*
X004568Y001986D02*
X004549Y001986D01*
X004324Y002455D02*
X004324Y003657D01*
X004954Y003987D02*
X005261Y003987D01*
X005107Y003987D02*
X005107Y004447D01*
X004954Y004294D01*
X005586Y003332D02*
X005583Y003330D01*
X004540Y003052D02*
X004542Y003099D01*
X004548Y003146D01*
X004557Y003192D01*
X004571Y003237D01*
X004588Y003281D01*
X004609Y003324D01*
X004633Y003364D01*
X004660Y003403D01*
X004691Y003439D01*
X004724Y003472D01*
X004760Y003503D01*
X004799Y003530D01*
X004839Y003554D01*
X004882Y003575D01*
X004926Y003592D01*
X004971Y003606D01*
X005017Y003615D01*
X005064Y003621D01*
X005111Y003623D01*
X005158Y003621D01*
X005205Y003615D01*
X005251Y003606D01*
X005296Y003592D01*
X005340Y003575D01*
X005383Y003554D01*
X005423Y003530D01*
X005462Y003503D01*
X005498Y003472D01*
X005531Y003439D01*
X005562Y003403D01*
X005589Y003364D01*
X005613Y003324D01*
X005634Y003281D01*
X005651Y003237D01*
X005665Y003192D01*
X005674Y003146D01*
X005680Y003099D01*
X005682Y003052D01*
X005680Y003005D01*
X005674Y002958D01*
X005665Y002912D01*
X005651Y002867D01*
X005634Y002823D01*
X005613Y002780D01*
X005589Y002740D01*
X005562Y002701D01*
X005531Y002665D01*
X005498Y002632D01*
X005462Y002601D01*
X005423Y002574D01*
X005383Y002550D01*
X005340Y002529D01*
X005296Y002512D01*
X005251Y002498D01*
X005205Y002489D01*
X005158Y002483D01*
X005111Y002481D01*
X005064Y002483D01*
X005017Y002489D01*
X004971Y002498D01*
X004926Y002512D01*
X004882Y002529D01*
X004839Y002550D01*
X004799Y002574D01*
X004760Y002601D01*
X004724Y002632D01*
X004691Y002665D01*
X004660Y002701D01*
X004633Y002740D01*
X004609Y002780D01*
X004588Y002823D01*
X004571Y002867D01*
X004557Y002912D01*
X004548Y002958D01*
X004542Y003005D01*
X004540Y003052D01*
X004802Y001447D02*
X005032Y001447D01*
X005109Y001370D01*
X005109Y001217D01*
X005032Y001140D01*
X004802Y001140D01*
X004802Y000987D02*
X004802Y001447D01*
X005262Y001370D02*
X005262Y001063D01*
X005339Y000987D01*
X005492Y000987D01*
X005569Y001063D01*
X005569Y001370D01*
X005492Y001447D01*
X005339Y001447D01*
X005262Y001370D01*
X005723Y001447D02*
X005723Y000987D01*
X005876Y001140D01*
X006030Y000987D01*
X006030Y001447D01*
X006183Y001447D02*
X006183Y000987D01*
X006490Y000987D01*
X006643Y000987D02*
X006643Y001447D01*
X006874Y001447D01*
X006950Y001370D01*
X006950Y001217D01*
X006874Y001140D01*
X006643Y001140D01*
X006797Y001140D02*
X006950Y000987D01*
X006490Y001447D02*
X006183Y001447D01*
X006183Y001217D02*
X006337Y001217D01*
X008124Y001246D02*
X008124Y001073D01*
X008124Y000955D01*
X011076Y000955D01*
X011076Y001073D01*
X011076Y001246D01*
X008124Y001246D01*
X008124Y001565D01*
X008124Y001755D01*
X011076Y001755D01*
X011076Y001565D01*
X011076Y001246D01*
X010925Y001288D02*
X010925Y001672D01*
X011078Y001672D02*
X011385Y001672D01*
X011232Y001672D02*
X011232Y001212D01*
X011076Y001073D02*
X008124Y001073D01*
X008359Y001267D02*
X008484Y001517D01*
X008234Y001517D01*
X008359Y001267D01*
X008346Y001293D02*
X008372Y001293D01*
X008391Y001331D02*
X008327Y001331D01*
X008307Y001370D02*
X008410Y001370D01*
X008430Y001408D02*
X008288Y001408D01*
X008269Y001447D02*
X008449Y001447D01*
X008468Y001485D02*
X008250Y001485D01*
X008124Y001565D02*
X011076Y001565D01*
X011076Y001755D02*
X011076Y002957D01*
X008124Y002957D01*
X008124Y001755D01*
X008340Y002352D02*
X008342Y002399D01*
X008348Y002446D01*
X008357Y002492D01*
X008371Y002537D01*
X008388Y002581D01*
X008409Y002624D01*
X008433Y002664D01*
X008460Y002703D01*
X008491Y002739D01*
X008524Y002772D01*
X008560Y002803D01*
X008599Y002830D01*
X008639Y002854D01*
X008682Y002875D01*
X008726Y002892D01*
X008771Y002906D01*
X008817Y002915D01*
X008864Y002921D01*
X008911Y002923D01*
X008958Y002921D01*
X009005Y002915D01*
X009051Y002906D01*
X009096Y002892D01*
X009140Y002875D01*
X009183Y002854D01*
X009223Y002830D01*
X009262Y002803D01*
X009298Y002772D01*
X009331Y002739D01*
X009362Y002703D01*
X009389Y002664D01*
X009413Y002624D01*
X009434Y002581D01*
X009451Y002537D01*
X009465Y002492D01*
X009474Y002446D01*
X009480Y002399D01*
X009482Y002352D01*
X009480Y002305D01*
X009474Y002258D01*
X009465Y002212D01*
X009451Y002167D01*
X009434Y002123D01*
X009413Y002080D01*
X009389Y002040D01*
X009362Y002001D01*
X009331Y001965D01*
X009298Y001932D01*
X009262Y001901D01*
X009223Y001874D01*
X009183Y001850D01*
X009140Y001829D01*
X009096Y001812D01*
X009051Y001798D01*
X009005Y001789D01*
X008958Y001783D01*
X008911Y001781D01*
X008864Y001783D01*
X008817Y001789D01*
X008771Y001798D01*
X008726Y001812D01*
X008682Y001829D01*
X008639Y001850D01*
X008599Y001874D01*
X008560Y001901D01*
X008524Y001932D01*
X008491Y001965D01*
X008460Y002001D01*
X008433Y002040D01*
X008409Y002080D01*
X008388Y002123D01*
X008371Y002167D01*
X008357Y002212D01*
X008348Y002258D01*
X008342Y002305D01*
X008340Y002352D01*
X008124Y002957D02*
X008124Y003145D01*
X011076Y003145D01*
X011076Y003829D01*
X008124Y003829D01*
X008124Y003145D01*
X008754Y003287D02*
X009061Y003287D01*
X008907Y003287D02*
X008907Y003747D01*
X008754Y003594D01*
X009386Y002632D02*
X009383Y002630D01*
X009718Y002352D02*
X009720Y002399D01*
X009726Y002446D01*
X009735Y002492D01*
X009749Y002537D01*
X009766Y002581D01*
X009787Y002624D01*
X009811Y002664D01*
X009838Y002703D01*
X009869Y002739D01*
X009902Y002772D01*
X009938Y002803D01*
X009977Y002830D01*
X010017Y002854D01*
X010060Y002875D01*
X010104Y002892D01*
X010149Y002906D01*
X010195Y002915D01*
X010242Y002921D01*
X010289Y002923D01*
X010336Y002921D01*
X010383Y002915D01*
X010429Y002906D01*
X010474Y002892D01*
X010518Y002875D01*
X010561Y002854D01*
X010601Y002830D01*
X010640Y002803D01*
X010676Y002772D01*
X010709Y002739D01*
X010740Y002703D01*
X010767Y002664D01*
X010791Y002624D01*
X010812Y002581D01*
X010829Y002537D01*
X010843Y002492D01*
X010852Y002446D01*
X010858Y002399D01*
X010860Y002352D01*
X010858Y002305D01*
X010852Y002258D01*
X010843Y002212D01*
X010829Y002167D01*
X010812Y002123D01*
X010791Y002080D01*
X010767Y002040D01*
X010740Y002001D01*
X010709Y001965D01*
X010676Y001932D01*
X010640Y001901D01*
X010601Y001874D01*
X010561Y001850D01*
X010518Y001829D01*
X010474Y001812D01*
X010429Y001798D01*
X010383Y001789D01*
X010336Y001783D01*
X010289Y001781D01*
X010242Y001783D01*
X010195Y001789D01*
X010149Y001798D01*
X010104Y001812D01*
X010060Y001829D01*
X010017Y001850D01*
X009977Y001874D01*
X009938Y001901D01*
X009902Y001932D01*
X009869Y001965D01*
X009838Y002001D01*
X009811Y002040D01*
X009787Y002080D01*
X009766Y002123D01*
X009749Y002167D01*
X009735Y002212D01*
X009726Y002258D01*
X009720Y002305D01*
X009718Y002352D01*
X009697Y001672D02*
X009927Y001672D01*
X010004Y001595D01*
X010004Y001442D01*
X009927Y001365D01*
X009697Y001365D01*
X009697Y001212D02*
X009697Y001672D01*
X009851Y001365D02*
X010004Y001212D01*
X010158Y001288D02*
X010158Y001595D01*
X010234Y001672D01*
X010388Y001672D01*
X010465Y001595D01*
X010465Y001288D01*
X010388Y001212D01*
X010234Y001212D01*
X010158Y001288D01*
X010618Y001288D02*
X010618Y001672D01*
X010618Y001288D02*
X010695Y001212D01*
X010848Y001212D01*
X010925Y001288D01*
X011539Y001212D02*
X011846Y001212D01*
X011692Y001212D02*
X011692Y001672D01*
X011539Y001519D01*
X011999Y001135D02*
X012306Y001135D01*
X012460Y001212D02*
X012767Y001519D01*
X012767Y001595D01*
X012690Y001672D01*
X012536Y001672D01*
X012460Y001595D01*
X012460Y001212D02*
X012767Y001212D01*
X013424Y001246D02*
X013424Y001073D01*
X013424Y000955D01*
X016376Y000955D01*
X016376Y001073D01*
X016376Y001246D01*
X013424Y001246D01*
X013424Y001565D01*
X013424Y001755D01*
X016376Y001755D01*
X016376Y001565D01*
X016376Y001246D01*
X016376Y001073D02*
X013424Y001073D01*
X013659Y001267D02*
X013784Y001517D01*
X013534Y001517D01*
X013659Y001267D01*
X013646Y001293D02*
X013672Y001293D01*
X013691Y001331D02*
X013627Y001331D01*
X013607Y001370D02*
X013710Y001370D01*
X013730Y001408D02*
X013588Y001408D01*
X013569Y001447D02*
X013749Y001447D01*
X013768Y001485D02*
X013550Y001485D01*
X013424Y001565D02*
X016376Y001565D01*
X016376Y001755D02*
X016376Y002957D01*
X013424Y002957D01*
X013424Y001755D01*
X013640Y002352D02*
X013642Y002399D01*
X013648Y002446D01*
X013657Y002492D01*
X013671Y002537D01*
X013688Y002581D01*
X013709Y002624D01*
X013733Y002664D01*
X013760Y002703D01*
X013791Y002739D01*
X013824Y002772D01*
X013860Y002803D01*
X013899Y002830D01*
X013939Y002854D01*
X013982Y002875D01*
X014026Y002892D01*
X014071Y002906D01*
X014117Y002915D01*
X014164Y002921D01*
X014211Y002923D01*
X014258Y002921D01*
X014305Y002915D01*
X014351Y002906D01*
X014396Y002892D01*
X014440Y002875D01*
X014483Y002854D01*
X014523Y002830D01*
X014562Y002803D01*
X014598Y002772D01*
X014631Y002739D01*
X014662Y002703D01*
X014689Y002664D01*
X014713Y002624D01*
X014734Y002581D01*
X014751Y002537D01*
X014765Y002492D01*
X014774Y002446D01*
X014780Y002399D01*
X014782Y002352D01*
X014780Y002305D01*
X014774Y002258D01*
X014765Y002212D01*
X014751Y002167D01*
X014734Y002123D01*
X014713Y002080D01*
X014689Y002040D01*
X014662Y002001D01*
X014631Y001965D01*
X014598Y001932D01*
X014562Y001901D01*
X014523Y001874D01*
X014483Y001850D01*
X014440Y001829D01*
X014396Y001812D01*
X014351Y001798D01*
X014305Y001789D01*
X014258Y001783D01*
X014211Y001781D01*
X014164Y001783D01*
X014117Y001789D01*
X014071Y001798D01*
X014026Y001812D01*
X013982Y001829D01*
X013939Y001850D01*
X013899Y001874D01*
X013860Y001901D01*
X013824Y001932D01*
X013791Y001965D01*
X013760Y002001D01*
X013733Y002040D01*
X013709Y002080D01*
X013688Y002123D01*
X013671Y002167D01*
X013657Y002212D01*
X013648Y002258D01*
X013642Y002305D01*
X013640Y002352D01*
X013424Y002957D02*
X013424Y003145D01*
X016376Y003145D01*
X016376Y003829D01*
X013424Y003829D01*
X013424Y003145D01*
X014054Y003287D02*
X014361Y003287D01*
X014207Y003287D02*
X014207Y003747D01*
X014054Y003594D01*
X014686Y002632D02*
X014683Y002630D01*
X015018Y002352D02*
X015020Y002399D01*
X015026Y002446D01*
X015035Y002492D01*
X015049Y002537D01*
X015066Y002581D01*
X015087Y002624D01*
X015111Y002664D01*
X015138Y002703D01*
X015169Y002739D01*
X015202Y002772D01*
X015238Y002803D01*
X015277Y002830D01*
X015317Y002854D01*
X015360Y002875D01*
X015404Y002892D01*
X015449Y002906D01*
X015495Y002915D01*
X015542Y002921D01*
X015589Y002923D01*
X015636Y002921D01*
X015683Y002915D01*
X015729Y002906D01*
X015774Y002892D01*
X015818Y002875D01*
X015861Y002854D01*
X015901Y002830D01*
X015940Y002803D01*
X015976Y002772D01*
X016009Y002739D01*
X016040Y002703D01*
X016067Y002664D01*
X016091Y002624D01*
X016112Y002581D01*
X016129Y002537D01*
X016143Y002492D01*
X016152Y002446D01*
X016158Y002399D01*
X016160Y002352D01*
X016158Y002305D01*
X016152Y002258D01*
X016143Y002212D01*
X016129Y002167D01*
X016112Y002123D01*
X016091Y002080D01*
X016067Y002040D01*
X016040Y002001D01*
X016009Y001965D01*
X015976Y001932D01*
X015940Y001901D01*
X015901Y001874D01*
X015861Y001850D01*
X015818Y001829D01*
X015774Y001812D01*
X015729Y001798D01*
X015683Y001789D01*
X015636Y001783D01*
X015589Y001781D01*
X015542Y001783D01*
X015495Y001789D01*
X015449Y001798D01*
X015404Y001812D01*
X015360Y001829D01*
X015317Y001850D01*
X015277Y001874D01*
X015238Y001901D01*
X015202Y001932D01*
X015169Y001965D01*
X015138Y002001D01*
X015111Y002040D01*
X015087Y002080D01*
X015066Y002123D01*
X015049Y002167D01*
X015035Y002212D01*
X015026Y002258D01*
X015020Y002305D01*
X015018Y002352D01*
X015429Y003287D02*
X015736Y003594D01*
X015736Y003670D01*
X015659Y003747D01*
X015506Y003747D01*
X015429Y003670D01*
X015429Y003287D02*
X015736Y003287D01*
X016376Y003145D02*
X016376Y002957D01*
X016064Y002632D02*
X016061Y002630D01*
X016720Y001872D02*
X016950Y001872D01*
X017027Y001795D01*
X017027Y001642D01*
X016950Y001565D01*
X016720Y001565D01*
X016720Y001412D02*
X016720Y001872D01*
X016873Y001565D02*
X017027Y001412D01*
X017180Y001488D02*
X017257Y001412D01*
X017411Y001412D01*
X017487Y001488D01*
X017487Y001795D01*
X017411Y001872D01*
X017257Y001872D01*
X017180Y001795D01*
X017180Y001488D01*
X017641Y001488D02*
X017641Y001872D01*
X017641Y001488D02*
X017718Y001412D01*
X017871Y001412D01*
X017948Y001488D01*
X017948Y001872D01*
X018101Y001872D02*
X018408Y001872D01*
X018336Y001755D02*
X018336Y001565D01*
X018336Y001246D01*
X018336Y001073D01*
X018336Y000955D01*
X021289Y000955D01*
X021289Y001073D01*
X021289Y001246D01*
X018336Y001246D01*
X018336Y001073D02*
X021289Y001073D01*
X021289Y001246D02*
X021289Y001565D01*
X021289Y001755D01*
X018336Y001755D01*
X018336Y002957D01*
X021289Y002957D01*
X021289Y003145D01*
X021289Y003829D01*
X018336Y003829D01*
X018336Y003145D01*
X021289Y003145D01*
X021289Y002957D02*
X021289Y001755D01*
X021289Y001565D02*
X018336Y001565D01*
X018446Y001517D02*
X018696Y001517D01*
X018571Y001267D01*
X018446Y001517D01*
X018462Y001485D02*
X018681Y001485D01*
X018661Y001447D02*
X018481Y001447D01*
X018501Y001408D02*
X018642Y001408D01*
X018623Y001370D02*
X018520Y001370D01*
X018539Y001331D02*
X018604Y001331D01*
X018584Y001293D02*
X018558Y001293D01*
X018562Y001412D02*
X018868Y001719D01*
X018868Y001795D01*
X018792Y001872D01*
X018638Y001872D01*
X018562Y001795D01*
X018255Y001872D02*
X018255Y001412D01*
X018562Y001412D02*
X018868Y001412D01*
X019022Y001335D02*
X019329Y001335D01*
X019482Y001412D02*
X019789Y001719D01*
X019789Y001795D01*
X019713Y001872D01*
X019559Y001872D01*
X019482Y001795D01*
X019482Y001412D02*
X019789Y001412D01*
X019504Y000853D02*
X019504Y000393D01*
X019197Y000853D01*
X019197Y000393D01*
X019044Y000393D02*
X018891Y000393D01*
X018967Y000393D02*
X018967Y000853D01*
X018891Y000853D02*
X019044Y000853D01*
X019658Y000316D02*
X019965Y000316D01*
X020118Y000393D02*
X020425Y000700D01*
X020425Y000777D01*
X020348Y000853D01*
X020195Y000853D01*
X020118Y000777D01*
X020118Y000393D02*
X020425Y000393D01*
X019931Y002352D02*
X019933Y002399D01*
X019939Y002446D01*
X019948Y002492D01*
X019962Y002537D01*
X019979Y002581D01*
X020000Y002624D01*
X020024Y002664D01*
X020051Y002703D01*
X020082Y002739D01*
X020115Y002772D01*
X020151Y002803D01*
X020190Y002830D01*
X020230Y002854D01*
X020273Y002875D01*
X020317Y002892D01*
X020362Y002906D01*
X020408Y002915D01*
X020455Y002921D01*
X020502Y002923D01*
X020549Y002921D01*
X020596Y002915D01*
X020642Y002906D01*
X020687Y002892D01*
X020731Y002875D01*
X020774Y002854D01*
X020814Y002830D01*
X020853Y002803D01*
X020889Y002772D01*
X020922Y002739D01*
X020953Y002703D01*
X020980Y002664D01*
X021004Y002624D01*
X021025Y002581D01*
X021042Y002537D01*
X021056Y002492D01*
X021065Y002446D01*
X021071Y002399D01*
X021073Y002352D01*
X021071Y002305D01*
X021065Y002258D01*
X021056Y002212D01*
X021042Y002167D01*
X021025Y002123D01*
X021004Y002080D01*
X020980Y002040D01*
X020953Y002001D01*
X020922Y001965D01*
X020889Y001932D01*
X020853Y001901D01*
X020814Y001874D01*
X020774Y001850D01*
X020731Y001829D01*
X020687Y001812D01*
X020642Y001798D01*
X020596Y001789D01*
X020549Y001783D01*
X020502Y001781D01*
X020455Y001783D01*
X020408Y001789D01*
X020362Y001798D01*
X020317Y001812D01*
X020273Y001829D01*
X020230Y001850D01*
X020190Y001874D01*
X020151Y001901D01*
X020115Y001932D01*
X020082Y001965D01*
X020051Y002001D01*
X020024Y002040D01*
X020000Y002080D01*
X019979Y002123D01*
X019962Y002167D01*
X019948Y002212D01*
X019939Y002258D01*
X019933Y002305D01*
X019931Y002352D01*
X019598Y002632D02*
X019596Y002630D01*
X018553Y002352D02*
X018555Y002399D01*
X018561Y002446D01*
X018570Y002492D01*
X018584Y002537D01*
X018601Y002581D01*
X018622Y002624D01*
X018646Y002664D01*
X018673Y002703D01*
X018704Y002739D01*
X018737Y002772D01*
X018773Y002803D01*
X018812Y002830D01*
X018852Y002854D01*
X018895Y002875D01*
X018939Y002892D01*
X018984Y002906D01*
X019030Y002915D01*
X019077Y002921D01*
X019124Y002923D01*
X019171Y002921D01*
X019218Y002915D01*
X019264Y002906D01*
X019309Y002892D01*
X019353Y002875D01*
X019396Y002854D01*
X019436Y002830D01*
X019475Y002803D01*
X019511Y002772D01*
X019544Y002739D01*
X019575Y002703D01*
X019602Y002664D01*
X019626Y002624D01*
X019647Y002581D01*
X019664Y002537D01*
X019678Y002492D01*
X019687Y002446D01*
X019693Y002399D01*
X019695Y002352D01*
X019693Y002305D01*
X019687Y002258D01*
X019678Y002212D01*
X019664Y002167D01*
X019647Y002123D01*
X019626Y002080D01*
X019602Y002040D01*
X019575Y002001D01*
X019544Y001965D01*
X019511Y001932D01*
X019475Y001901D01*
X019436Y001874D01*
X019396Y001850D01*
X019353Y001829D01*
X019309Y001812D01*
X019264Y001798D01*
X019218Y001789D01*
X019171Y001783D01*
X019124Y001781D01*
X019077Y001783D01*
X019030Y001789D01*
X018984Y001798D01*
X018939Y001812D01*
X018895Y001829D01*
X018852Y001850D01*
X018812Y001874D01*
X018773Y001901D01*
X018737Y001932D01*
X018704Y001965D01*
X018673Y002001D01*
X018646Y002040D01*
X018622Y002080D01*
X018601Y002123D01*
X018584Y002167D01*
X018570Y002212D01*
X018561Y002258D01*
X018555Y002305D01*
X018553Y002352D01*
X018336Y002957D02*
X018336Y003145D01*
X018966Y003287D02*
X019273Y003287D01*
X019120Y003287D02*
X019120Y003747D01*
X018966Y003594D01*
X020341Y003670D02*
X020418Y003747D01*
X020572Y003747D01*
X020648Y003670D01*
X020648Y003594D01*
X020341Y003287D01*
X020648Y003287D01*
X020976Y002632D02*
X020974Y002630D01*
X023255Y002957D02*
X023255Y001755D01*
X023255Y001565D01*
X023255Y001246D01*
X023255Y001073D01*
X023255Y000955D01*
X026208Y000955D01*
X026208Y001073D01*
X026208Y001246D01*
X023255Y001246D01*
X023255Y001073D02*
X026208Y001073D01*
X026208Y001246D02*
X026208Y001565D01*
X026208Y001755D01*
X023255Y001755D01*
X023255Y001565D02*
X026208Y001565D01*
X026208Y001755D02*
X026208Y002957D01*
X023255Y002957D01*
X023255Y003145D01*
X026208Y003145D01*
X026208Y003829D01*
X023255Y003829D01*
X023255Y003145D01*
X023885Y003287D02*
X024192Y003287D01*
X024039Y003287D02*
X024039Y003747D01*
X023885Y003594D01*
X024517Y002632D02*
X024515Y002630D01*
X023472Y002352D02*
X023474Y002399D01*
X023480Y002446D01*
X023489Y002492D01*
X023503Y002537D01*
X023520Y002581D01*
X023541Y002624D01*
X023565Y002664D01*
X023592Y002703D01*
X023623Y002739D01*
X023656Y002772D01*
X023692Y002803D01*
X023731Y002830D01*
X023771Y002854D01*
X023814Y002875D01*
X023858Y002892D01*
X023903Y002906D01*
X023949Y002915D01*
X023996Y002921D01*
X024043Y002923D01*
X024090Y002921D01*
X024137Y002915D01*
X024183Y002906D01*
X024228Y002892D01*
X024272Y002875D01*
X024315Y002854D01*
X024355Y002830D01*
X024394Y002803D01*
X024430Y002772D01*
X024463Y002739D01*
X024494Y002703D01*
X024521Y002664D01*
X024545Y002624D01*
X024566Y002581D01*
X024583Y002537D01*
X024597Y002492D01*
X024606Y002446D01*
X024612Y002399D01*
X024614Y002352D01*
X024612Y002305D01*
X024606Y002258D01*
X024597Y002212D01*
X024583Y002167D01*
X024566Y002123D01*
X024545Y002080D01*
X024521Y002040D01*
X024494Y002001D01*
X024463Y001965D01*
X024430Y001932D01*
X024394Y001901D01*
X024355Y001874D01*
X024315Y001850D01*
X024272Y001829D01*
X024228Y001812D01*
X024183Y001798D01*
X024137Y001789D01*
X024090Y001783D01*
X024043Y001781D01*
X023996Y001783D01*
X023949Y001789D01*
X023903Y001798D01*
X023858Y001812D01*
X023814Y001829D01*
X023771Y001850D01*
X023731Y001874D01*
X023692Y001901D01*
X023656Y001932D01*
X023623Y001965D01*
X023592Y002001D01*
X023565Y002040D01*
X023541Y002080D01*
X023520Y002123D01*
X023503Y002167D01*
X023489Y002212D01*
X023480Y002258D01*
X023474Y002305D01*
X023472Y002352D01*
X023365Y001517D02*
X023615Y001517D01*
X023490Y001267D01*
X023365Y001517D01*
X023381Y001485D02*
X023600Y001485D01*
X023580Y001447D02*
X023400Y001447D01*
X023420Y001408D02*
X023561Y001408D01*
X023542Y001370D02*
X023439Y001370D01*
X023458Y001331D02*
X023523Y001331D01*
X023503Y001293D02*
X023477Y001293D01*
X023809Y000853D02*
X023963Y000853D01*
X023886Y000853D02*
X023886Y000393D01*
X023809Y000393D02*
X023963Y000393D01*
X024116Y000393D02*
X024116Y000853D01*
X024423Y000393D01*
X024423Y000853D01*
X024577Y000316D02*
X024884Y000316D01*
X025037Y000393D02*
X025344Y000393D01*
X025191Y000393D02*
X025191Y000853D01*
X025037Y000700D01*
X024849Y002352D02*
X024851Y002399D01*
X024857Y002446D01*
X024866Y002492D01*
X024880Y002537D01*
X024897Y002581D01*
X024918Y002624D01*
X024942Y002664D01*
X024969Y002703D01*
X025000Y002739D01*
X025033Y002772D01*
X025069Y002803D01*
X025108Y002830D01*
X025148Y002854D01*
X025191Y002875D01*
X025235Y002892D01*
X025280Y002906D01*
X025326Y002915D01*
X025373Y002921D01*
X025420Y002923D01*
X025467Y002921D01*
X025514Y002915D01*
X025560Y002906D01*
X025605Y002892D01*
X025649Y002875D01*
X025692Y002854D01*
X025732Y002830D01*
X025771Y002803D01*
X025807Y002772D01*
X025840Y002739D01*
X025871Y002703D01*
X025898Y002664D01*
X025922Y002624D01*
X025943Y002581D01*
X025960Y002537D01*
X025974Y002492D01*
X025983Y002446D01*
X025989Y002399D01*
X025991Y002352D01*
X025989Y002305D01*
X025983Y002258D01*
X025974Y002212D01*
X025960Y002167D01*
X025943Y002123D01*
X025922Y002080D01*
X025898Y002040D01*
X025871Y002001D01*
X025840Y001965D01*
X025807Y001932D01*
X025771Y001901D01*
X025732Y001874D01*
X025692Y001850D01*
X025649Y001829D01*
X025605Y001812D01*
X025560Y001798D01*
X025514Y001789D01*
X025467Y001783D01*
X025420Y001781D01*
X025373Y001783D01*
X025326Y001789D01*
X025280Y001798D01*
X025235Y001812D01*
X025191Y001829D01*
X025148Y001850D01*
X025108Y001874D01*
X025069Y001901D01*
X025033Y001932D01*
X025000Y001965D01*
X024969Y002001D01*
X024942Y002040D01*
X024918Y002080D01*
X024897Y002123D01*
X024880Y002167D01*
X024866Y002212D01*
X024857Y002258D01*
X024851Y002305D01*
X024849Y002352D01*
X025260Y003287D02*
X025567Y003594D01*
X025567Y003670D01*
X025491Y003747D01*
X025337Y003747D01*
X025260Y003670D01*
X025260Y003287D02*
X025567Y003287D01*
X026208Y003145D02*
X026208Y002957D01*
X025895Y002632D02*
X025893Y002630D01*
X020919Y007435D02*
X020612Y007435D01*
X020458Y007512D02*
X020151Y007512D01*
X020458Y007819D01*
X020458Y007895D01*
X020382Y007972D01*
X020228Y007972D01*
X020151Y007895D01*
X019998Y007972D02*
X019998Y007512D01*
X019691Y007972D01*
X019691Y007512D01*
X019538Y007512D02*
X019384Y007512D01*
X019461Y007512D02*
X019461Y007972D01*
X019384Y007972D02*
X019538Y007972D01*
X019231Y007895D02*
X019231Y007742D01*
X019154Y007665D01*
X018924Y007665D01*
X019077Y007665D02*
X019231Y007512D01*
X018924Y007512D02*
X018924Y007972D01*
X019154Y007972D01*
X019231Y007895D01*
X018673Y007512D02*
X018366Y007512D01*
X018519Y007512D02*
X018519Y007972D01*
X018366Y007819D01*
X018212Y007435D02*
X017906Y007435D01*
X017752Y007512D02*
X017445Y007512D01*
X017752Y007819D01*
X017752Y007895D01*
X017675Y007972D01*
X017522Y007972D01*
X017445Y007895D01*
X017292Y007972D02*
X017292Y007512D01*
X016985Y007972D01*
X016985Y007512D01*
X016831Y007512D02*
X016678Y007512D01*
X016755Y007512D02*
X016755Y007972D01*
X016831Y007972D02*
X016678Y007972D01*
X016524Y007895D02*
X016524Y007742D01*
X016448Y007665D01*
X016217Y007665D01*
X016217Y007512D02*
X016217Y007972D01*
X016448Y007972D01*
X016524Y007895D01*
X016371Y007665D02*
X016524Y007512D01*
X016413Y006972D02*
X016413Y006512D01*
X016260Y006512D02*
X016567Y006512D01*
X016260Y006819D02*
X016413Y006972D01*
X015646Y006895D02*
X015569Y006972D01*
X015416Y006972D01*
X015339Y006895D01*
X015185Y006972D02*
X014878Y006972D01*
X014725Y006972D02*
X014725Y006588D01*
X014648Y006512D01*
X014495Y006512D01*
X014418Y006588D01*
X014418Y006972D01*
X014265Y006895D02*
X014188Y006972D01*
X014034Y006972D01*
X013958Y006895D01*
X013958Y006588D01*
X014034Y006512D01*
X014188Y006512D01*
X014265Y006588D01*
X014265Y006895D01*
X013804Y006895D02*
X013804Y006742D01*
X013727Y006665D01*
X013497Y006665D01*
X013497Y006512D02*
X013497Y006972D01*
X013727Y006972D01*
X013804Y006895D01*
X013651Y006665D02*
X013804Y006512D01*
X015032Y006512D02*
X015032Y006972D01*
X015339Y006512D02*
X015646Y006819D01*
X015646Y006895D01*
X015646Y006512D02*
X015339Y006512D01*
X015799Y006435D02*
X016106Y006435D01*
X021072Y007512D02*
X021379Y007819D01*
X021379Y007895D01*
X021302Y007972D01*
X021149Y007972D01*
X021072Y007895D01*
X021072Y007512D02*
X021379Y007512D01*
X021936Y007612D02*
X021936Y008072D01*
X022166Y008072D01*
X022243Y007995D01*
X022243Y007842D01*
X022166Y007765D01*
X021936Y007765D01*
X022090Y007765D02*
X022243Y007612D01*
X022397Y007612D02*
X022550Y007612D01*
X022473Y007612D02*
X022473Y008072D01*
X022397Y008072D02*
X022550Y008072D01*
X022704Y008072D02*
X023011Y007612D01*
X023011Y008072D01*
X023164Y007919D02*
X023317Y008072D01*
X023317Y007612D01*
X023164Y007612D02*
X023471Y007612D01*
X023624Y007535D02*
X023931Y007535D01*
X024085Y007612D02*
X024392Y007612D01*
X024238Y007612D02*
X024238Y008072D01*
X024085Y007919D01*
X025439Y008072D02*
X025439Y007612D01*
X025439Y007765D02*
X025669Y007765D01*
X025746Y007842D01*
X025746Y007995D01*
X025669Y008072D01*
X025439Y008072D01*
X025592Y007765D02*
X025746Y007612D01*
X025899Y007612D02*
X026053Y007612D01*
X025976Y007612D02*
X025976Y008072D01*
X025899Y008072D02*
X026053Y008072D01*
X026206Y008072D02*
X026513Y007612D01*
X026513Y008072D01*
X026667Y007919D02*
X026820Y008072D01*
X026820Y007612D01*
X026667Y007612D02*
X026974Y007612D01*
X027127Y007535D02*
X027434Y007535D01*
X027587Y007612D02*
X027894Y007919D01*
X027894Y007995D01*
X027818Y008072D01*
X027664Y008072D01*
X027587Y007995D01*
X027587Y007612D02*
X027894Y007612D01*
X026206Y007612D02*
X026206Y008072D01*
X025792Y009507D02*
X025485Y009507D01*
X025638Y009507D02*
X025638Y009967D01*
X025485Y009813D01*
X025331Y009967D02*
X025024Y009507D01*
X025331Y009507D02*
X025024Y009967D01*
X025436Y010126D02*
X025626Y010126D01*
X025946Y010126D01*
X026119Y010126D01*
X026237Y010126D01*
X026237Y014457D01*
X026119Y014457D01*
X025946Y014457D01*
X025946Y010126D01*
X026119Y010126D02*
X026119Y014457D01*
X025946Y014457D02*
X025626Y014457D01*
X025436Y014457D01*
X025436Y010126D01*
X024234Y010126D01*
X024234Y014457D01*
X024047Y014457D01*
X023363Y014457D01*
X023363Y010126D01*
X024047Y010126D01*
X024047Y014457D01*
X024234Y014457D02*
X025436Y014457D01*
X025626Y014457D02*
X025626Y010126D01*
X025675Y010237D02*
X025675Y010487D01*
X025925Y010362D01*
X025675Y010237D01*
X025675Y010263D02*
X025728Y010263D01*
X025675Y010302D02*
X025805Y010302D01*
X025882Y010340D02*
X025675Y010340D01*
X025675Y010379D02*
X025891Y010379D01*
X025814Y010417D02*
X025675Y010417D01*
X025675Y010456D02*
X025737Y010456D01*
X024268Y010914D02*
X024270Y010961D01*
X024276Y011008D01*
X024285Y011054D01*
X024299Y011099D01*
X024316Y011143D01*
X024337Y011186D01*
X024361Y011226D01*
X024388Y011265D01*
X024419Y011301D01*
X024452Y011334D01*
X024488Y011365D01*
X024527Y011392D01*
X024567Y011416D01*
X024610Y011437D01*
X024654Y011454D01*
X024699Y011468D01*
X024745Y011477D01*
X024792Y011483D01*
X024839Y011485D01*
X024886Y011483D01*
X024933Y011477D01*
X024979Y011468D01*
X025024Y011454D01*
X025068Y011437D01*
X025111Y011416D01*
X025151Y011392D01*
X025190Y011365D01*
X025226Y011334D01*
X025259Y011301D01*
X025290Y011265D01*
X025317Y011226D01*
X025341Y011186D01*
X025362Y011143D01*
X025379Y011099D01*
X025393Y011054D01*
X025402Y011008D01*
X025408Y010961D01*
X025410Y010914D01*
X025408Y010867D01*
X025402Y010820D01*
X025393Y010774D01*
X025379Y010729D01*
X025362Y010685D01*
X025341Y010642D01*
X025317Y010602D01*
X025290Y010563D01*
X025259Y010527D01*
X025226Y010494D01*
X025190Y010463D01*
X025151Y010436D01*
X025111Y010412D01*
X025068Y010391D01*
X025024Y010374D01*
X024979Y010360D01*
X024933Y010351D01*
X024886Y010345D01*
X024839Y010343D01*
X024792Y010345D01*
X024745Y010351D01*
X024699Y010360D01*
X024654Y010374D01*
X024610Y010391D01*
X024567Y010412D01*
X024527Y010436D01*
X024488Y010463D01*
X024452Y010494D01*
X024419Y010527D01*
X024388Y010563D01*
X024361Y010602D01*
X024337Y010642D01*
X024316Y010685D01*
X024299Y010729D01*
X024285Y010774D01*
X024276Y010820D01*
X024270Y010867D01*
X024268Y010914D01*
X023905Y010910D02*
X023445Y010910D01*
X023598Y010757D01*
X023905Y010757D02*
X023905Y011063D01*
X024559Y011389D02*
X024562Y011386D01*
X023905Y012132D02*
X023598Y012438D01*
X023521Y012438D01*
X023445Y012362D01*
X023445Y012208D01*
X023521Y012132D01*
X023905Y012132D02*
X023905Y012438D01*
X024559Y012766D02*
X024562Y012764D01*
X024268Y012292D02*
X024270Y012339D01*
X024276Y012386D01*
X024285Y012432D01*
X024299Y012477D01*
X024316Y012521D01*
X024337Y012564D01*
X024361Y012604D01*
X024388Y012643D01*
X024419Y012679D01*
X024452Y012712D01*
X024488Y012743D01*
X024527Y012770D01*
X024567Y012794D01*
X024610Y012815D01*
X024654Y012832D01*
X024699Y012846D01*
X024745Y012855D01*
X024792Y012861D01*
X024839Y012863D01*
X024886Y012861D01*
X024933Y012855D01*
X024979Y012846D01*
X025024Y012832D01*
X025068Y012815D01*
X025111Y012794D01*
X025151Y012770D01*
X025190Y012743D01*
X025226Y012712D01*
X025259Y012679D01*
X025290Y012643D01*
X025317Y012604D01*
X025341Y012564D01*
X025362Y012521D01*
X025379Y012477D01*
X025393Y012432D01*
X025402Y012386D01*
X025408Y012339D01*
X025410Y012292D01*
X025408Y012245D01*
X025402Y012198D01*
X025393Y012152D01*
X025379Y012107D01*
X025362Y012063D01*
X025341Y012020D01*
X025317Y011980D01*
X025290Y011941D01*
X025259Y011905D01*
X025226Y011872D01*
X025190Y011841D01*
X025151Y011814D01*
X025111Y011790D01*
X025068Y011769D01*
X025024Y011752D01*
X024979Y011738D01*
X024933Y011729D01*
X024886Y011723D01*
X024839Y011721D01*
X024792Y011723D01*
X024745Y011729D01*
X024699Y011738D01*
X024654Y011752D01*
X024610Y011769D01*
X024567Y011790D01*
X024527Y011814D01*
X024488Y011841D01*
X024452Y011872D01*
X024419Y011905D01*
X024388Y011941D01*
X024361Y011980D01*
X024337Y012020D01*
X024316Y012063D01*
X024299Y012107D01*
X024285Y012152D01*
X024276Y012198D01*
X024270Y012245D01*
X024268Y012292D01*
X023067Y013012D02*
X022760Y013012D01*
X022913Y013012D02*
X022913Y013472D01*
X022760Y013319D01*
X022606Y012935D02*
X022299Y012935D01*
X022146Y013012D02*
X021839Y013012D01*
X021839Y013472D01*
X021378Y013472D02*
X021378Y013012D01*
X021685Y013012D01*
X021225Y013088D02*
X021225Y013472D01*
X020918Y013472D02*
X020918Y013088D01*
X020995Y013012D01*
X021148Y013012D01*
X021225Y013088D01*
X020765Y013242D02*
X020688Y013165D01*
X020458Y013165D01*
X020458Y013012D02*
X020458Y013472D01*
X020688Y013472D01*
X020765Y013395D01*
X020765Y013242D01*
X020304Y013242D02*
X020227Y013165D01*
X019997Y013165D01*
X019997Y013012D02*
X019997Y013472D01*
X020227Y013472D01*
X020304Y013395D01*
X020304Y013242D01*
X020151Y013165D02*
X020304Y013012D01*
X023445Y013583D02*
X023445Y013737D01*
X023521Y013813D01*
X023598Y013813D01*
X023675Y013737D01*
X023752Y013813D01*
X023828Y013813D01*
X023905Y013737D01*
X023905Y013583D01*
X023828Y013507D01*
X023675Y013660D02*
X023675Y013737D01*
X023521Y013507D02*
X023445Y013583D01*
X024559Y014144D02*
X024562Y014142D01*
X024268Y013670D02*
X024270Y013717D01*
X024276Y013764D01*
X024285Y013810D01*
X024299Y013855D01*
X024316Y013899D01*
X024337Y013942D01*
X024361Y013982D01*
X024388Y014021D01*
X024419Y014057D01*
X024452Y014090D01*
X024488Y014121D01*
X024527Y014148D01*
X024567Y014172D01*
X024610Y014193D01*
X024654Y014210D01*
X024699Y014224D01*
X024745Y014233D01*
X024792Y014239D01*
X024839Y014241D01*
X024886Y014239D01*
X024933Y014233D01*
X024979Y014224D01*
X025024Y014210D01*
X025068Y014193D01*
X025111Y014172D01*
X025151Y014148D01*
X025190Y014121D01*
X025226Y014090D01*
X025259Y014057D01*
X025290Y014021D01*
X025317Y013982D01*
X025341Y013942D01*
X025362Y013899D01*
X025379Y013855D01*
X025393Y013810D01*
X025402Y013764D01*
X025408Y013717D01*
X025410Y013670D01*
X025408Y013623D01*
X025402Y013576D01*
X025393Y013530D01*
X025379Y013485D01*
X025362Y013441D01*
X025341Y013398D01*
X025317Y013358D01*
X025290Y013319D01*
X025259Y013283D01*
X025226Y013250D01*
X025190Y013219D01*
X025151Y013192D01*
X025111Y013168D01*
X025068Y013147D01*
X025024Y013130D01*
X024979Y013116D01*
X024933Y013107D01*
X024886Y013101D01*
X024839Y013099D01*
X024792Y013101D01*
X024745Y013107D01*
X024699Y013116D01*
X024654Y013130D01*
X024610Y013147D01*
X024567Y013168D01*
X024527Y013192D01*
X024488Y013219D01*
X024452Y013250D01*
X024419Y013283D01*
X024388Y013319D01*
X024361Y013358D01*
X024337Y013398D01*
X024316Y013441D01*
X024299Y013485D01*
X024285Y013530D01*
X024276Y013576D01*
X024270Y013623D01*
X024268Y013670D01*
X024234Y010126D02*
X024047Y010126D01*
X022704Y008072D02*
X022704Y007612D01*
X015750Y000670D02*
X015674Y000747D01*
X015520Y000747D01*
X015443Y000670D01*
X015750Y000670D02*
X015750Y000594D01*
X015443Y000287D01*
X015750Y000287D01*
X015290Y000210D02*
X014983Y000210D01*
X014676Y000287D02*
X014676Y000747D01*
X014523Y000747D02*
X014830Y000747D01*
X014369Y000747D02*
X014369Y000363D01*
X014292Y000287D01*
X014139Y000287D01*
X014062Y000363D01*
X014062Y000747D01*
X013909Y000670D02*
X013832Y000747D01*
X013679Y000747D01*
X013602Y000670D01*
X013602Y000363D01*
X013679Y000287D01*
X013832Y000287D01*
X013909Y000363D01*
X013909Y000670D01*
X011076Y002957D02*
X011076Y003145D01*
X010436Y003287D02*
X010129Y003287D01*
X010436Y003594D01*
X010436Y003670D01*
X010359Y003747D01*
X010206Y003747D01*
X010129Y003670D01*
X010764Y002632D02*
X010761Y002630D01*
X010397Y000747D02*
X010397Y000287D01*
X010550Y000287D02*
X010243Y000287D01*
X010090Y000210D02*
X009783Y000210D01*
X009476Y000287D02*
X009476Y000747D01*
X009323Y000747D02*
X009630Y000747D01*
X009169Y000747D02*
X009169Y000363D01*
X009092Y000287D01*
X008939Y000287D01*
X008862Y000363D01*
X008862Y000747D01*
X008709Y000670D02*
X008632Y000747D01*
X008479Y000747D01*
X008402Y000670D01*
X008402Y000363D01*
X008479Y000287D01*
X008632Y000287D01*
X008709Y000363D01*
X008709Y000670D01*
X010243Y000594D02*
X010397Y000747D01*
X006964Y003332D02*
X006961Y003330D01*
X005918Y003052D02*
X005920Y003099D01*
X005926Y003146D01*
X005935Y003192D01*
X005949Y003237D01*
X005966Y003281D01*
X005987Y003324D01*
X006011Y003364D01*
X006038Y003403D01*
X006069Y003439D01*
X006102Y003472D01*
X006138Y003503D01*
X006177Y003530D01*
X006217Y003554D01*
X006260Y003575D01*
X006304Y003592D01*
X006349Y003606D01*
X006395Y003615D01*
X006442Y003621D01*
X006489Y003623D01*
X006536Y003621D01*
X006583Y003615D01*
X006629Y003606D01*
X006674Y003592D01*
X006718Y003575D01*
X006761Y003554D01*
X006801Y003530D01*
X006840Y003503D01*
X006876Y003472D01*
X006909Y003439D01*
X006940Y003403D01*
X006967Y003364D01*
X006991Y003324D01*
X007012Y003281D01*
X007029Y003237D01*
X007043Y003192D01*
X007052Y003146D01*
X007058Y003099D01*
X007060Y003052D01*
X007058Y003005D01*
X007052Y002958D01*
X007043Y002912D01*
X007029Y002867D01*
X007012Y002823D01*
X006991Y002780D01*
X006967Y002740D01*
X006940Y002701D01*
X006909Y002665D01*
X006876Y002632D01*
X006840Y002601D01*
X006801Y002574D01*
X006761Y002550D01*
X006718Y002529D01*
X006674Y002512D01*
X006629Y002498D01*
X006583Y002489D01*
X006536Y002483D01*
X006489Y002481D01*
X006442Y002483D01*
X006395Y002489D01*
X006349Y002498D01*
X006304Y002512D01*
X006260Y002529D01*
X006217Y002550D01*
X006177Y002574D01*
X006138Y002601D01*
X006102Y002632D01*
X006069Y002665D01*
X006038Y002701D01*
X006011Y002740D01*
X005987Y002780D01*
X005966Y002823D01*
X005949Y002867D01*
X005935Y002912D01*
X005926Y002958D01*
X005920Y003005D01*
X005918Y003052D01*
X006329Y003987D02*
X006636Y004294D01*
X006636Y004370D01*
X006559Y004447D01*
X006406Y004447D01*
X006329Y004370D01*
X006329Y003987D02*
X006636Y003987D01*
X007722Y006935D02*
X008029Y006935D01*
X008182Y007012D02*
X008489Y007012D01*
X008336Y007012D02*
X008336Y007472D01*
X008182Y007319D01*
X007568Y007012D02*
X007262Y007012D01*
X007415Y007012D02*
X007415Y007472D01*
X007262Y007319D01*
X007108Y007472D02*
X006801Y007472D01*
X006648Y007472D02*
X006648Y007088D01*
X006571Y007012D01*
X006418Y007012D01*
X006341Y007088D01*
X006341Y007472D01*
X006187Y007395D02*
X006111Y007472D01*
X005957Y007472D01*
X005880Y007395D01*
X005880Y007088D01*
X005957Y007012D01*
X006111Y007012D01*
X006187Y007088D01*
X006187Y007395D01*
X005727Y007395D02*
X005727Y007242D01*
X005650Y007165D01*
X005420Y007165D01*
X005420Y007012D02*
X005420Y007472D01*
X005650Y007472D01*
X005727Y007395D01*
X005573Y007165D02*
X005727Y007012D01*
X006955Y007012D02*
X006955Y007472D01*
X007013Y014361D02*
X007166Y014515D01*
X007320Y014361D01*
X007320Y014822D01*
X007473Y014822D02*
X007627Y014822D01*
X007550Y014822D02*
X007550Y014361D01*
X007473Y014361D02*
X007627Y014361D01*
X007780Y014361D02*
X007780Y014822D01*
X008087Y014822D01*
X008241Y014822D02*
X008394Y014822D01*
X008317Y014822D02*
X008317Y014361D01*
X008241Y014361D02*
X008394Y014361D01*
X008548Y014285D02*
X008854Y014285D01*
X009008Y014361D02*
X009315Y014361D01*
X009468Y014438D02*
X009545Y014361D01*
X009699Y014361D01*
X009775Y014438D01*
X009775Y014745D01*
X009699Y014822D01*
X009545Y014822D01*
X009468Y014745D01*
X009468Y014438D01*
X009008Y014361D02*
X009008Y014822D01*
X009929Y014822D02*
X009929Y014361D01*
X009929Y014515D02*
X010159Y014515D01*
X010236Y014591D01*
X010236Y014745D01*
X010159Y014822D01*
X009929Y014822D01*
X010082Y014515D02*
X010236Y014361D01*
X010389Y014361D02*
X010389Y014668D01*
X010543Y014822D01*
X010696Y014668D01*
X010696Y014361D01*
X010850Y014285D02*
X011156Y014285D01*
X011310Y014438D02*
X011387Y014361D01*
X011540Y014361D01*
X011617Y014438D01*
X011617Y014515D01*
X011540Y014591D01*
X011463Y014591D01*
X011540Y014591D02*
X011617Y014668D01*
X011617Y014745D01*
X011540Y014822D01*
X011387Y014822D01*
X011310Y014745D01*
X011770Y014745D02*
X011847Y014822D01*
X012000Y014822D01*
X012077Y014745D01*
X012077Y014668D01*
X011770Y014361D01*
X012077Y014361D01*
X012231Y014285D02*
X012538Y014285D01*
X012691Y014515D02*
X012845Y014361D01*
X012998Y014515D01*
X012998Y014822D01*
X013151Y014745D02*
X013228Y014822D01*
X013382Y014822D01*
X013458Y014745D01*
X013458Y014668D01*
X013382Y014591D01*
X013458Y014515D01*
X013458Y014438D01*
X013382Y014361D01*
X013228Y014361D01*
X013151Y014438D01*
X013305Y014591D02*
X013382Y014591D01*
X012691Y014515D02*
X012691Y014822D01*
X010696Y014591D02*
X010389Y014591D01*
X007934Y014591D02*
X007780Y014591D01*
X007013Y014361D02*
X007013Y014822D01*
M02*
